<svg xmlns="http://www.w3.org/2000/svg" version="1.1" width="600px" height="600px" viewBox="0 0 200 200" style="overflow:hidden!important;"><g id="svga-group-wrapper"><g id="svga-group-backs-single"></g><g id="svga-group-humanwrap-move" transform="matrix(1,0,0,1,0,0)"><g id="svga-group-humanwrap"><g id="svga-group-hair-back-move" transform="matrix(1,0,0,1,0,0)"><g id="svga-group-hair-back"><path id="SvgjsPath18378" d="M72.8 197.6s-16.3-1.2-20.2-9.6-3.7-29.1 4-43.6c7.6-14.6 5.2-39.9 5.2-39.9 10.6-20 55.7-3.9 55.2 9.9s-20.5 51.8-26.9 61.9S76 197.4 76 197.4l-3.2.2z" fill="#1b141c" stroke-width="none" opacity="1" stroke="none"></path></g></g><g id="svga-group-humanbody-back"><path id="SvgjsPath17533" d="M77.8 105.9s4.8 37.7 10 55.8c0 0-6.4 8.8-14.5 11.9-28.7 11.2-35 11.2-39.6 15.2-2.4 2.1.2 11.1 1.8 17.2 1.3 5 1.7 13.2 1.7 13.2h132.2s1.6-33-.6-39.8-7.1-2.9-21.9-4.5c-14.8-1.6-28.7-10.3-31-13.2l.3-60-38.4 4.2z" fill="#f3d4cf" stroke-width="none" opacity="1" stroke="none"></path></g><g id="svga-group-chinshadow-single"><path id="SvgjsPath17529" d="M85.6 152.8c6.6 3.5 10.7 3.5 10.7 3.5s8 0 19.6-9.5l.2-45.2-38.4 4.2c.1.1 3.6 27.7 7.9 47z" fill="#d4958a" stroke-width="none" opacity="1" stroke="none"></path></g><g id="svga-group-humanbody-front"><path id="SvgjsPath17534" d="M72.1 183.1s14.6-.2 20.4 2.6c5.8 2.9 12.7 2.4 16.1-1s21.6-7 21.6-7-19.7 1.9-25 4.6c-5.3 2.7-22.3-2.8-33.1.8z" fill="#d4958a" stroke-width="none" opacity="1" stroke="none"></path><path id="SvgjsPath17535" d="M74.2 173.2c6.7-1.3 14.7-6.4 14.7-6.4l6.2 5.5c-4.3-7.9-12.7-41.1-12.7-41.1l-.7.7c1.7 10.5 3.9 21.9 6.1 29.7 0 0-6 8.2-13.6 11.6z" fill="#d4958a" stroke-width="none" opacity="1" stroke="none"></path><path id="SvgjsPath17536" d="M170.7 188.5c-.1-2.1-.2-4.1-.4-6.2-.1-1-.3-2.1-.6-3.2-.2-.5-.4-1-.6-1.6-.2-.5-.6-1-1-1.5s-.9-.9-1.5-1.1c-.6-.3-1.1-.4-1.7-.6-1.1-.2-2.2-.2-3.2-.2-2.1 0-4.1.1-6.1.1s-4-.1-6-.2-4-.4-6-.7c-1-.2-2-.4-2.9-.6l-1.5-.4c-.5-.1-1-.3-1.4-.4-3.8-1.1-7.6-2.6-11.2-4.4l-1.3-.7-1.3-.7c-.4-.2-.9-.5-1.3-.8s-.9-.5-1.3-.8-.8-.5-1.3-.8l-1.2-.9-.6-.5-.3-.2-.3-.2c-.2-.2-.4-.3-.5-.5l-.2-.3v-44.6l-.1-15v-.6l-.6.1c-6.4.8-12.9 1.5-19.3 2.3l-19.1 2.3v.5l.1.4.1.9.2 1.8c.1 1.2.3 2.3.4 3.5l.9 7c.6 4.7 1.3 9.4 2.1 14 .8 4.7 1.5 9.3 2.5 14 .9 4.5 1.8 9 3 13.5-1.1 1.4-2.3 2.7-3.6 4-1.3 1.3-2.8 2.6-4.3 3.8-1.5 1.1-3.1 2.2-4.8 3l-1.3.6c-.4.2-.9.3-1.3.5l-2.7 1c-7.2 2.7-14.5 5.3-21.8 7.7l-5.5 1.8c-1.8.6-3.7 1.3-5.5 2.2-.4.2-.9.5-1.3.7-.4.3-.9.5-1.3.9l-.6.5c-.2.2-.5.5-.6.8-.3.5-.4 1.1-.5 1.6-.2 1.1-.1 2.1 0 3.1s.3 2 .4 2.9c.4 1.9.8 3.8 1.3 5.7l.8 2.8c.3.9.5 1.8.7 2.8.4 1.9.7 3.8.9 5.7s.4 3.8.5 5.7v.8h133.4v-.8c.2-4.1.4-8.2.5-12.3s.2-8.2.2-12.3c0-1.8-.1-3.8-.1-5.9zm-67.4 30.3H70.2l-16.5-.1-16-.1c-.1-1.8-.2-3.5-.4-5.3-.2-1.9-.4-3.9-.8-5.8-.2-1-.4-1.9-.7-2.9l-.7-2.8c-.5-1.9-.9-3.7-1.2-5.6-.2-.9-.3-1.9-.4-2.8-.1-.9-.1-1.9 0-2.7.1-.4.2-.8.4-1.1.1-.2.2-.3.3-.4l.5-.4c.3-.3.7-.5 1.1-.8.4-.2.8-.5 1.2-.7 1.7-.8 3.5-1.4 5.3-2l5.5-1.8c7.3-2.4 14.6-5 21.8-7.8l2.7-1c.5-.2.9-.3 1.4-.5l1.4-.6c1.8-.9 3.4-2 5-3.2s3-2.5 4.4-3.9 2.7-2.9 3.8-4.5l.2-.3-.1-.3c-1.3-4.5-2.3-9.1-3.3-13.7s-1.9-9.3-2.7-13.9c-.8-4.6-1.6-9.3-2.4-14l-2.2-13.9 19.3-1.8c6.2-.6 12.3-1.2 18.5-1.8l-.2 14.4-.2 15-.3 30v.4l.2.2.6.7.6.6.3.3.3.2.6.5c.4.3.9.6 1.3.9.4.3.9.6 1.3.9.4.3.9.5 1.3.8s.9.5 1.3.8l1.4.8 1.4.7c.5.2.9.5 1.4.7l1.4.7c1 .4 1.9.8 2.9 1.2s1.9.8 2.9 1.1l1.5.5c.5.2 1 .3 1.5.4.5.1 1 .3 1.5.4l1.5.4c1 .3 2 .4 3 .6 2 .4 4.1.6 6.2.8 2.1.2 4.1.2 6.2.2 2.1 0 4.1-.1 6.1-.1s4 .1 5 1.3c.5.6.9 1.4 1.2 2.3.3.9.4 1.9.6 2.8.3 2 .4 4 .5 6s.1 4.1.2 6.1c.1 7.9-.1 15.8-.4 23.7-10.8.1-21.5.1-32.3.2h-33.1z" fill="#c5796d" stroke-width="none" opacity="1" stroke="none"></path><path id="SvgjsPath17537" d="M150.7 219.2 147 198l-.4 21.2z" fill="#d4958a" stroke-width="none" opacity="1" stroke="none"></path><path id="SvgjsPath17538" d="M47.3 203.5s2.2 11.5 2.9 15.7h3.5l-6.4-15.7z" fill="#d4958a" stroke-width="none" opacity="1" stroke="none"></path></g><g id="svga-group-clothes-single"><path id="SvgjsPath19442" d="M70.5 188.4s17.7 11.1 20.6 13.2c2.9 2.2 13.3 5.2 13.3 5.2s13.5-6.3 15.2-7.7c1.7-1.4 16.3-17.4 16.3-17.4v38H71.7l-1.2-31.3z" fill="#ffffff" stroke-width="none" opacity="1"></path><path id="SvgjsPath19443" d="M73.7 175c.4-1.1 6.3-6.7 6.3-6.7l-5.9.3-19.1 6.5 3.5 1.3s-17.8 6.5-20.2 6.7c-2.5.2-7.2 0-7 2.8 0 0-2.8 1.5-2.8 3.4s6.1 20.2 8.3 30.4h47.1s-7.1-19.1-8.2-23.6c-1.3-4.5-2.4-19.9-2-21.1zm98.9-.1c-1.2-.8-3-.3-3-.3s-.1-2.9-1.2-3-7.7.8-11.9 1.2-13.1-.3-13.1-.3l1.2-1.1c-2.9-.1-16.2-6-17.9-6.5s-5.4-.3-5.4-.3 3.6 2.6 4.2 3.8c.6 1.2 6.9 20.1 6.5 24.5s-5 26.9-5 26.9h45.5c.1 0 1.3-44.2.1-44.9z" fill="#09aac5" stroke-width="none" opacity="1"></path><path id="SvgjsPath19444" d="M173.6 177.7c0-.5 0-1-.1-1.5 0-.3 0-.5-.1-.8 0-.1 0-.3-.1-.4 0-.1-.1-.2-.1-.3 0-.1-.2-.3-.3-.3l-.1-.1c-.6-.3-1.2-.5-1.8-.5h-.8c0-.4-.1-.7-.2-1.1-.1-.3-.2-.7-.4-1-.1-.2-.3-.4-.5-.6-.2-.2-.7-.3-.8-.3-.8 0-1.3 0-1.9.1l-1.8.2-7.1.8c-2.3.3-4.6.3-7 .3-1.7-.1-3.5-.1-5.2-.2l1.1-1-1.8-.2c-.8-.1-1.8-.4-2.8-.6-1-.3-1.9-.6-2.9-.9l-5.7-2.1c-1.9-.7-3.8-1.4-5.8-2.1-1-.4-2.1-.4-3.1-.4h-3.1s-.1 0-.1.1l.1.1.1.1.2.1.3.3.7.6c.5.4.9.8 1.3 1.2.4.4.9.9 1.2 1.3.2.5.4 1.1.6 1.6.7 2.3 1.4 4.6 2.1 7 .7 2.3 1.3 4.7 1.9 7 .2 1 .5 2 .7 3-.6.6-1.2 1.3-1.8 1.9-2.4 2.4-4.7 4.9-7.1 7.3l-1.8 1.8c-.3.3-.6.5-.9.7-.3.2-.7.4-1.1.6-1.5.8-3 1.5-4.5 2.3l-8.9 4.3c-3-.9-5.9-1.9-8.8-3-1.5-.6-3-1.2-4.2-2.1-1.4-.9-2.7-1.8-4.1-2.6-2.8-1.7-5.5-3.4-8.3-5.1l-3.4-2c-.6-3.8-1-7.7-1.3-11.6-.1-1.1-.2-2.3-.2-3.4v-.8c0-.2 0-.4.2-.6.3-.4.7-.9 1-1.3.7-.9 1.5-1.7 2.3-2.6l1.2-1.3.6-.6.3-.3.2-.2.1-.1s.1-.1.1-.2h-6.1c-3.2 1-6.4 2-9.7 3-3.2 1-6.4 2-9.6 3.1l-2.1.7 2.1.8 1.3.5c-3.9 1.4-7.9 2.7-11.8 4.1-1.2.4-2.3.8-3.5 1.1-.6.2-1.2.4-1.7.5-.3.1-.5.1-.8.2l-.9.1c-1.2.1-2.5.2-3.8.5-.6.2-1.3.4-1.9.9l-.4.4-.3.6c-.1.2-.1.4-.1.6v.2c-.6.4-1.1.8-1.6 1.3-.5.6-1.1 1.4-1.1 2.3 0 .5.1.9.2 1.2.1.4.2.7.3 1.1.2.7.4 1.4.6 2.2l2.6 8.6c.9 2.9 1.7 5.8 2.5 8.7.8 2.9 1.5 5.8 2.1 8.8l.1.4 136.8.1v-.5c.1-4 0-8 .1-12l.2-12 .2-12v-6zm-5.4-5.3zm-108 46.5-8.9.1c-.2-3.1-.6-6.2-1.1-9.3-.5-3.5-1.1-7-1.7-10.4l-.5-2.6-.3-1.3c0-.2-.1-.5-.2-.8-.1-.3-.3-.5-.4-.7-.6-.9-1.4-1.5-2.1-2-.8-.6-1.5-1-2.3-1.4-3.2-1.7-6.6-2.8-10-3.6 3.2 1.6 6.3 3.1 9.3 5 1.4.9 2.9 1.9 3.7 3.1.1.1.2.3.2.4 0 .1.1.2.1.5l.2 1.3.5 2.6c.7 3.4 1.4 6.9 2.2 10.3.7 3 1.5 6 2.3 9h-2.6l-11.4.2c-.7-2.8-1.5-5.6-2.3-8.4l-2.5-8.7c-.8-2.9-1.7-5.8-2.4-8.7-.2-.7-.4-1.5-.5-2.2-.1-.4-.2-.7-.2-1.1-.1-.4-.1-.7-.1-1 0-.6.4-1.1.9-1.6s1.1-.9 1.7-1.2l.3-.2v-.4c0-.5.1-.8.5-1.1.4-.3.9-.5 1.4-.6 1.1-.2 2.3-.3 3.6-.3h1c.3-.1.7-.1 1-.2.6-.1 1.2-.3 1.8-.5 1.2-.4 2.4-.7 3.6-1.1 4.7-1.5 9.4-3.2 14-4.9l.8-.3c.1.1.2.1.4.1l2.1.6c.5.1.9.1 1.4.2-.5.4-1.1.8-1.6 1.2-1.1.9-2.2 1.7-3.2 2.6s-2.1 1.8-3.2 2.7l-.6.5.4.6c.9 1.3 1.8 2.7 2.6 4 .9 1.3 1.8 2.7 2.6 4 .4.7.8 1.4 1.1 2 .3.7.7 1.4 1 2.1l1.9 4.4c2.4 5.6 4.9 11.2 7.6 16.6-4.2.4-8.1.5-12.1.5zm12-.1c-.8-2.8-1.8-5.5-2.7-8.3-1.1-3-2.2-6.1-3.3-9.1l-1.8-4.5c-.3-.8-.6-1.5-1-2.3-.4-.8-.8-1.5-1.2-2.2-1.6-2.6-3.3-5-5-7.4.8-.8 1.6-1.5 2.4-2.3l3-2.9c2-1.9 4.1-3.7 6.1-5.7-1.6 1.1-3.2 2.2-4.8 3.4-.5-.2-1-.5-1.5-.7-.4-.2-.8-.3-1.3-.5l-.6-.2s-.1 0-.1-.1c-.1 0-.2-.1-.2-.1l-1.2-.4-1.4-.5c2.5-.9 4.9-1.8 7.4-2.7 3.2-1.1 6.3-2.3 9.4-3.5 1.8-.1 3.6-.4 5.6-.6l-.2.1-.3.3-.7.6-1.3 1.2c-.8.8-1.7 1.6-2.5 2.4-.4.4-.8.8-1.2 1.3-.1.1-.2.3-.3.4-.1.2-.1.4-.1.5 0 .3-.1.6-.1.9v3.5c.2 4.6.4 9.2 1.1 13.9.2 1.1.3 2.4.7 3.5.3 1.1.7 2.2 1 3.4.7 2.2 1.4 4.4 2.2 6.6 1.3 3.9 2.7 7.8 4.1 11.6-3.5.4-6.8.4-10.2.4zm15.6 0h-3.2L80 206.4l-2.3-6.5c-.4-1.1-.8-2.2-1.1-3.2-.3-1.1-.5-2.1-.7-3.3-.1-.4-.1-.9-.2-1.3l2.8 1.9 8.1 5.4c1.3.9 2.7 1.8 4 2.8 1.4 1 2.9 1.7 4.5 2.3 3 1.3 6.1 2.3 9.2 3.3l.3.1.3-.1c3.1-1.4 6.2-2.9 9.2-4.4l4.5-2.4c.4-.2.8-.4 1.1-.7.4-.3.8-.6 1.1-.9.6-.6 1.2-1.2 1.8-1.9 2.3-2.5 4.6-5.1 6.8-7.6l1.3-1.5c.2 1 .4 2 .5 2.9l.1.9v.8l-.3 1.8-.6 3.6-1.4 7.1-2.7 13.7c-7.4-.1-14.9-.1-22.3-.2-5.5-.2-10.9-.2-16.2-.2zm50.6 0-10.1-.1c.9-4.4 1.7-8.7 2.5-13.1.4-2.4.9-4.8 1.2-7.2l.6-3.6c.1-.6.2-1.2.2-1.9v-1l-.1-1c-.4-2.5-1-4.9-1.6-7.2-.7-2.4-1.4-4.7-2.2-7-.8-2.3-1.6-4.6-2.5-6.9-.2-.6-.4-1.1-.8-1.7-.4-.6-.9-.9-1.3-1.4-.5-.4-1-.8-1.4-1.1l-.8-.5-.4-.3-.1-.1h1.3c.5 0 1 .1 1.5.1 1 .1 2 .2 2.9.6l5.6 2.4c1.9.8 3.8 1.6 5.7 2.3.9.4 1.9.7 2.9 1.1.5.2 1 .3 1.5.5h-.1l-.7.6c-.4.2-.7.5-1.1.8-.9.7-1.8 1.6-2.6 2.4-1.2-.8-2.5-1.5-3.7-2.1 1.2.9 2.5 1.9 3.7 2.9l1.8 1.5c.6.5 1.3.9 2 1.3 1.4.8 2.8 1.5 4.2 2.2 1.1.6 2.2 1.1 3.4 1.6-1.4 2.6-2.8 5.3-4.1 8l-2.1 4.5c-.7 1.5-1.4 3-1.9 4.7-.4 1.7-.8 3.3-1.1 4.9-.3 1.6-.6 3.2-.9 4.9-.5 3.1-1 6-1.4 8.9zm34.1-11c-.1 3.8-.3 7.6-.4 11.5-4.1-.1-8.1-.2-12.2-.2.4-3.5.6-7 .7-10.6.1-3.9.2-7.8.1-11.7 0-1-.1-2-.1-3l-.1-.8v-.5c0-.4.1-.8.2-1.2.5-1.7 1.4-3.5 2.2-5.2 1.8-3.4 3.7-6.8 5.8-10.1-2.8 2.8-5.1 6-7.2 9.3-1 1.7-2 3.4-2.6 5.4-.2.5-.3 1-.3 1.6V193.2l.1.7c.1.9.1 1.9.1 2.9.1 3.9.2 7.8.4 11.7.1 3.5.3 7 .7 10.6-3.3-.1-6.5-.1-9.8-.1l-11.1-.1c.8-2.8 1.5-5.7 2.3-8.5.8-3.2 1.6-6.4 2.5-9.5.2-.7.6-1.4.9-2.2l1-2.2 2.2-4.4 4.4-8.9.4-.9-.9-.4c-2.9-1.2-5.8-2.4-8.6-3.7-.7-.3-1.4-.7-2.1-1.1-.6-.4-1.3-.9-1.9-1.3-.1 0-.1-.1-.1-.1.5-.1 1-.4 1.4-.6.6-.3 1.1-.7 1.6-1.1.3-.3.6-.6 1-.9l.6.1c2.4.2 4.8.4 7.1.5 2.4.1 4.8.1 7.2-.2l7.1-.8 1.8-.2c.6-.1 1.2-.1 1.6-.1l.1.1c.1.1.2.4.3.6.1.5.2 1.1.3 1.6l.1.9.9-.2c.8-.2 1.7-.2 2.3.1v.2c0 .2.1.5.1.7.1.5.1 1 .1 1.5l.3 6c.1 4 .2 8 .1 12-.4 3.9-.5 7.9-.6 11.9z" fill="#008fa6" stroke-width="none" opacity="1"></path></g><g id="svga-group-head" transform="matrix(1,0,0,1,0,0)"><g id="svga-group-ears-left-move" transform="matrix(1,0,0,1,0,0)"><g id="svga-group-ears-left"><path id="SvgjsPath18914" d="M63.09 94.03s-3.12-7.36-5.69-9.71c-2.57-2.34-7.59-5.02-9.48-4.35-1.9.67 1.12 8.81 2.23 10.6 1.12 1.79 1.12 11.49 1.23 14.39.11 2.9 2.9 6.25 5.02 8.7 2.12 2.45 4.24-1.12 5.69-4.35s1-15.28 1-15.28z" fill="#f3d4cf" stroke-width="none" opacity="1" stroke="none"></path><path id="SvgjsPath18915" d="M61.92 100.31c-.33-2.85-5.11-11.21-6.86-12.8-1.76-1.59-5.69-4.44-5.77-3.52s2.26 5.69 2.34 8.54.17 10.96 1.09 12.72c.92 1.76 5.69 1.51 6.53-.17s2.67-4.77 2.67-4.77z" fill="#e4b3ab" stroke-width="none" opacity="1" stroke="none"></path><path id="SvgjsPath18916" d="M47.07 80.79c-.11.94.06 1.79.25 2.64.4 1.69.98 3.31 1.62 4.9.33.79.68 1.58 1.11 2.33.35.72.47 1.6.59 2.43.22 1.69.26 3.4.32 5.11.04 1.71.03 3.42.05 5.13.03.85-.04 1.71.14 2.62.17.89.52 1.72.93 2.5.82 1.56 1.87 2.94 2.96 4.28.27.33.55.67.83.99.13.16.29.33.47.5.16.18.38.32.6.45.46.25 1.07.32 1.58.14.49-.19.88-.49 1.21-.81.66-.65 1.13-1.41 1.57-2.16.43-.76.81-1.54 1.15-2.34.63-1.74.72-3.45.84-5.17.17-3.44.07-6.86-.15-10.29-.62-1.62-1.31-3.18-2.08-4.71-.79-1.52-1.59-3.06-2.7-4.42-.56-.69-1.24-1.27-1.92-1.8-.69-.53-1.41-1.01-2.15-1.47-1.49-.89-3.07-1.66-4.83-2.01-.44-.07-.91-.11-1.4.01-.22.02-.56.2-.71.44-.18.22-.23.47-.28.71zm.56.1c.04-.18.1-.36.19-.47.1-.11.16-.15.37-.18.35-.08.75-.02 1.14.05 1.6.33 3.13 1.13 4.58 1.96.73.42 1.44.88 2.11 1.38.68.51 1.32 1.03 1.85 1.67 1.07 1.27 1.97 2.74 2.81 4.22.83 1.48 1.63 3.01 2.37 4.53-.03 3.41-.11 6.84-.4 10.23-.16 1.68-.34 3.42-.92 4.9-.73 1.51-1.47 3.09-2.59 4.22-.28.27-.59.49-.9.61-.31.1-.61.06-.9-.09-.55-.33-1.09-1.11-1.65-1.73-1.09-1.3-2.14-2.64-2.94-4.1-.4-.73-.72-1.5-.9-2.28-.17-.76-.15-1.64-.19-2.49-.06-1.71-.14-3.42-.25-5.13-.11-1.71-.25-3.42-.48-5.12-.14-.85-.25-1.71-.66-2.52-.43-.72-.75-1.52-1.07-2.31-.62-1.59-1.13-3.22-1.44-4.89-.14-.84-.26-1.7-.13-2.46z" fill="#e4b3ab" stroke-width="none" opacity="1" stroke="none"></path><path id="SvgjsPath18917" d="M53.38 89.46c.58 1.22 1.11 2.47 1.51 3.75.4 1.29.75 2.59 1.06 3.9.29 1.31.56 2.63.72 3.97l-.08.02c-.42-1.28-.8-2.56-1.2-3.84-.39-1.28-.78-2.56-1.2-3.82-.41-1.27-.78-2.55-1.24-3.8-.38-1.05-.84-2.1-1.49-3 .37 1.58.79 3.15 1.13 4.74.19.9.36 1.8.49 2.71.07.46.13.92.17 1.38.05.46.04.98.04 1.39.05 1.78.28 3.6.53 5.39.14.9.28 1.79.47 2.67.09.44.2.88.32 1.3.01.02.01.04.02.06.04-.85.09-1.71.11-2.56.04-1.28.1-2.55.06-3.83l.08-.01c.17 1.27.2 2.56.25 3.84.03 1.28.04 2.56.05 3.84v.8l-.52-.59c-.4-.46-.51-.9-.68-1.34-.15-.45-.28-.89-.39-1.34-.23-.9-.42-1.8-.58-2.71-.31-1.82-.56-3.63-.58-5.51.09-1.79-.24-3.58-.47-5.39-.26-1.8-.5-3.62-.9-5.4l-.12-.54.35.42c.88 1.08 1.49 2.29 2.09 3.5z" fill="#c5796d" stroke-width="none" opacity="1" stroke="none"></path></g></g><g id="svga-group-ears-right-move" transform="matrix(1,0,0,1,0,0)"><g id="svga-group-ears-right"><path id="SvgjsPath18918" d="M136.91 94.03s3.12-7.36 5.69-9.71c2.57-2.34 7.59-5.02 9.48-4.35s-1.12 8.81-2.23 10.6c-1.12 1.79-1.12 11.49-1.23 14.39-.11 2.9-2.9 6.25-5.02 8.7-2.12 2.45-4.24-1.12-5.69-4.35-1.45-3.23-1-15.28-1-15.28z" fill="#f3d4cf" stroke-width="none" opacity="1" stroke="none"></path><path id="SvgjsPath18919" d="M138.08 100.31c.33-2.85 5.11-11.21 6.86-12.8 1.76-1.59 5.69-4.44 5.77-3.52.08.92-2.26 5.69-2.34 8.54s-.17 10.96-1.09 12.72c-.92 1.76-5.69 1.51-6.53-.17s-2.67-4.77-2.67-4.77z" fill="#e4b3ab" stroke-width="none" opacity="1" stroke="none"></path><path id="SvgjsPath18920" d="M152.66 80.07c-.15-.24-.49-.42-.71-.44-.49-.12-.96-.08-1.4-.01-1.76.35-3.34 1.12-4.83 2.01-.74.45-1.46.93-2.15 1.47-.68.53-1.36 1.1-1.92 1.8-1.11 1.36-1.91 2.9-2.7 4.42-.77 1.54-1.46 3.1-2.08 4.71-.23 3.43-.33 6.85-.15 10.29.12 1.72.22 3.44.84 5.17.34.79.72 1.58 1.15 2.34.44.76.91 1.51 1.57 2.16.33.32.72.62 1.21.81.51.18 1.11.11 1.58-.14.22-.14.44-.27.6-.45.18-.17.34-.34.47-.5.28-.32.55-.66.83-.99 1.09-1.34 2.14-2.72 2.96-4.28.4-.78.75-1.61.93-2.5.17-.92.11-1.77.14-2.62.02-1.71.01-3.42.05-5.13.05-1.71.1-3.42.32-5.11.12-.83.23-1.71.59-2.43.43-.76.78-1.54 1.11-2.33.64-1.59 1.21-3.21 1.62-4.9.18-.85.36-1.7.25-2.64-.06-.23-.11-.48-.28-.71zm-.42 3.27c-.31 1.66-.82 3.3-1.44 4.89-.32.79-.63 1.59-1.07 2.31-.41.81-.52 1.67-.66 2.52-.22 1.7-.37 3.41-.48 5.12-.11 1.71-.2 3.42-.25 5.13-.05.85-.02 1.73-.19 2.49-.18.79-.5 1.55-.9 2.28-.8 1.46-1.85 2.8-2.94 4.1-.56.62-1.1 1.4-1.65 1.73-.29.15-.59.19-.9.09-.31-.12-.62-.34-.9-.61-1.12-1.13-1.86-2.71-2.59-4.22-.58-1.47-.76-3.22-.92-4.9-.29-3.39-.37-6.82-.4-10.23.74-1.52 1.54-3.05 2.37-4.53.84-1.48 1.73-2.95 2.81-4.22.53-.63 1.17-1.16 1.85-1.67.67-.5 1.39-.96 2.11-1.38 1.45-.83 2.98-1.63 4.58-1.96.39-.07.8-.12 1.14-.05.21.03.27.07.37.18.09.11.15.29.19.47.13.77.01 1.63-.13 2.46z" fill="#e4b3ab" stroke-width="none" opacity="1" stroke="none"></path><path id="SvgjsPath18921" d="M146.62 89.46c-.58 1.22-1.11 2.47-1.51 3.75-.4 1.29-.75 2.59-1.06 3.9-.29 1.31-.56 2.63-.72 3.97l.08.02c.42-1.28.8-2.56 1.2-3.84.39-1.28.78-2.56 1.2-3.82.41-1.27.78-2.55 1.24-3.8.38-1.05.84-2.1 1.49-3-.37 1.58-.79 3.15-1.13 4.74-.19.9-.36 1.8-.49 2.71-.07.46-.13.92-.17 1.38-.05.46-.04.98-.04 1.39-.05 1.78-.28 3.6-.53 5.39-.14.9-.28 1.79-.47 2.67-.09.44-.2.88-.32 1.3-.01.02-.01.04-.02.06-.04-.85-.09-1.71-.11-2.56-.04-1.28-.1-2.55-.06-3.83l-.08-.01c-.17 1.27-.2 2.56-.25 3.84-.03 1.28-.04 2.56-.05 3.84v.8l.52-.59c.4-.46.51-.9.68-1.34.15-.45.28-.89.39-1.34.23-.9.42-1.8.58-2.71.31-1.82.56-3.63.58-5.51-.09-1.79.24-3.58.47-5.39.26-1.8.5-3.62.9-5.4l.12-.54-.35.42c-.88 1.08-1.49 2.29-2.09 3.5z" fill="#c5796d" stroke-width="none" opacity="1" stroke="none"></path></g></g><g id="svga-group-faceshape-wrap"><g id="svga-group-faceshape-single"><path id="SvgjsPath17515" d="M135.9 49.8c-6.7-7.4-11.3-13.2-28.8-17.3-1.8-.4-12.3-.4-14.1 0-17.5 4.1-22.1 9.9-28.8 17.3-7.1 7.8-9.5 29-9.5 29 0 9.6 1.3 32.3 13.3 47.2 17.8 22.2 32.1 22.3 32.1 22.3s14.2 0 32.1-22.3c12-14.9 13.3-37.6 13.3-47.2-.1 0-2.5-21.2-9.6-29z" fill="#f3d4cf" stroke-width="none" opacity="1" stroke="none"></path><path id="SvgjsPath17516" d="M107.1 32.5c-1.8-.4-12.3-.4-14.1 0-17.5 4.1-22.1 9.9-28.8 17.3-7.1 7.8-9.5 29-9.5 29 0 9.6 1.3 32.3 13.3 47.2 17.8 22.2 32.1 22.3 32.1 22.3s14.2 0 32.1-22.3c12-14.9 13.3-37.6 13.3-47.2 0 0-2.4-21.2-9.5-29-6.9-7.4-11.5-13.2-28.9-17.3zM142 63.8c.7 2.5 1.1 5 1.6 7.5.4 2.5.7 5 1 7.5-.2 7.4-1.3 14.8-3 22-.9 3.6-1.9 7.1-3.3 10.5-.7 1.7-1.4 3.4-2.2 5s-1.7 3.2-2.7 4.7l-1.5 2.2c-.3.4-3.4 4.2-3.4 4.2l-3.7 4.1-6.1 5.7c-2.8 2.3-5.8 4.5-9 6.2l-1.2.6-1.2.6c-.8.4-1.6.7-2.5 1l-1.3.4c-.4.1-.8.2-1.3.3-.4.1-1.71.43-2.9.4 0 0-1.4-.2-1.9-.3-.4-.1-.9-.2-1.3-.3l-1.3-.4c-.8-.3-1.7-.6-2.5-1l-1.2-.5-1.2-.6c-3.2-1.6-6.3-3.7-9.1-6l-4.1-3.6-3.9-3.9-1-1-.9-1-1.8-2.1c-1.2-1.4-2.3-2.8-3.3-4.4-1-1.5-2-3.1-2.8-4.8-.8-1.6-1.6-3.3-2.3-5.1-.7-1.7-1.3-3.5-1.8-5.3s-1-3.6-1.4-5.4-.8-3.6-1-5.5c-.3-1.8-.5-3.7-.7-5.5-.4-3.7-.5-7.4-.5-11.1.3-2.3.8-4.6 1.2-6.9.5-2.3 1.1-4.6 1.7-6.8.7-2.2 1.4-4.5 2.3-6.6.4-1.1.9-2.1 1.4-3.1s2.59-4.47 6.3-8.1c1.6-1.7 3.3-3.3 5-4.7 3.5-2.8 7.7-4.9 12-6.5l1.6-.6c6.69-2.31 10.6-2.2 11.8-2.3 2.3-.1 4.71-.26 7-.1 3.16.22 6.8 1.4 6.8 1.4 2.3.6 4.5 1.3 6.7 2.3.3.1 1.6.7 1.6.7.5.3 2.6 1.3 3.1 1.7.5.3 5.3 3.7 6.9 5.4 1.7 1.7 3.3 3.4 4.9 5.2 1.7 1.9 2.9 4.2 3.9 6.6 1.1 2.4 1.9 4.8 2.5 7.3z" fill="#c5796d" stroke-width="none" opacity="1" stroke="none"></path></g></g><g id="svga-group-mouth-single-move" transform="matrix(1,0,0,1,0,0)"><g id="svga-group-mouth-single"><path id="SvgjsPath17996" d="M86.3 122.77s3.78 5.21 6.46 6.76c2.69 1.54 6.74 2.85 11.37 1.48s9.37-6.41 9.37-6.41-5.48-2.85-7.85-3.27c-2.37-.42-6 1.66-6 1.66s-2.47-1.96-3.95-2.2-9.4 1.98-9.4 1.98z" fill="#da7c87" stroke-width="none" opacity="1" stroke="none"></path><path id="SvgjsPath17997" d="M84.89 122.33c2.54.48 5.06 1.07 7.57 1.72 1.26.32 2.5.67 3.76 1.04.65.2 1.19.39 1.81.47.61.09 1.23.12 1.86.11 1.25.01 2.52-.11 3.77-.31.31-.05.62-.1.94-.16.32-.06.65-.12.97-.16.64-.1 1.29-.17 1.93-.24 1.29-.13 2.58-.21 3.87-.25 1.29.02 2.55-.09 3.83-.34-1.21.49-2.52.76-3.79.89-1.27.17-2.54.36-3.81.57l-1.89.34c-.31.06-.62.13-.93.2l-.96.21c-1.29.24-2.59.37-3.91.38-.66-.01-1.32-.04-1.99-.15-.66-.09-1.36-.32-1.94-.53l-3.69-1.21c-2.49-.82-4.95-1.65-7.4-2.58z" fill="#cb5f6c" stroke-width="none" opacity="1" stroke="none"></path></g></g><g id="svga-group-eyes-left-move" transform="matrix(1,0,0,1,0,0)"><g id="svga-group-eyes-left"><g id="svga-group-eyesback-left"><path id="SvgjsPath17591" d="M80.2 77.2c7.5 0 13.5 5.8 13.5 13s-6 13-13.5 13-13.5-5.8-13.5-13 6-13 13.5-13z" fill="#ffffff" stroke-width="none" opacity="1"></path></g><g id="svga-group-eyesiriswrapper-left" transform="matrix(1,0,0,1,0,0)"><g id="svga-group-eyesiriscontrol-left" transform="matrix(1,0,0,1,0,0)"><g id="svga-group-eyesiris-left"><path id="SvgjsPath17553" d="M80.2 84.6c3.1 0 5.6 2.5 5.6 5.6s-2.5 5.6-5.6 5.6-5.6-2.5-5.6-5.6 2.5-5.6 5.6-5.6z" fill="#02040d" stroke-width="none" opacity="1"></path><path id="SvgjsPath17554" d="M80.2 87.2c1.7 0 3 1.3 3 3s-1.3 3-3 3-3-1.3-3-3 1.3-3 3-3z" fill="#000000" stroke-width="none" opacity="1"></path><path id="SvgjsPath17555" d="m79.5 87.8-.6-.6c-.2-.2-.5-.3-.8-.3s-.6.1-.8.3c-.2.2-.3.5-.3.8s.1.6.3.8l.6.6c.2.2.5.3.8.3s.6-.1.8-.3c.4-.6.4-1.2 0-1.6zm2.7 5.1c1 0 1-1.5 0-1.5-.9 0-.9 1.5 0 1.5z" fill="#ffffff" stroke-width="none" opacity="1"></path></g></g></g><g id="svga-group-eyesfront-left"><path id="SvgjsPath17599" d="M80.2 76.7c-7.8 0-14.1 6.1-14.1 13.6s6.3 13.6 14.1 13.6 14.1-6.1 14.1-13.6S88 76.7 80.2 76.7zm0 20.5c-5.5 0-10.7-2.6-10.8-3.5s.9-3.9 3.2-6.4 8-3.3 12.8-1.4 5.9 7.5 5.9 7.5c.1 1.7-5.6 3.8-11.1 3.8z" fill="#f3d4cf" stroke-width="none" opacity="1" stroke="none"></path><path id="SvgjsPath17600" d="m90.2 90.3-.9-1.5c-1-1.5-2.4-2.8-4.2-3.7-2.2-1.1-4.8-1.4-7.2-1-1.2.2-2.4.6-3.5 1.1-1 .5-2 1.2-2.8 2.1h-.1c-.7-.4-1.4-.5-2-1-.6-.5-1-1.1-1.3-1.8-.1-.2-.5-.1-.5.1.1.9.5 1.7 1.1 2.3.5.5 1.3 1.2 2.1 1.3-.1.2-.3.4-.4.6-.7-.2-1.5-.1-2.2-.3-1.1-.3-1.8-1.1-2.6-1.9-.2-.2-.5 0-.4.2.4 1.1 1.3 1.8 2.4 2.3.6.3 1.5.7 2.3.7-.1.2-.2.5-.3.8h-.1c-.8 0-1.6.4-2.4.3-1.2.1-2.2-.6-2.8-1.5-.2-.2-.5 0-.4.2.9 1.4 3.6 2.9 5.4 2.2 0 .2-.1.4-.1.6-.1.3-.2.7-.2 1.1v.2c0 .1.1.2.1.3l.3.3.1.1c-1.1-.1-2.5.9-2.7 1.8 0 .2.2.4.4.3.4-.3.8-.7 1.2-.9.4-.2 1.3-.5 1.8-.7.1.1.2.1.3.2-.4.1-.7.4-1 .7-.4.5-.5 1.1-.4 1.7.1.2.4.2.4-.1 0-.5.3-.9.6-1.2.3-.3.8-.4 1.1-.7.1.1.2.1.4.2 2.1.9 4.4 1.5 6.8 1.7 2.4.2 4.7-.1 7-.7 1.1-.3 2.2-.7 3.3-1.1.5-.2 1-.5 1.5-.8.2-.2.4-.3.6-.6s.3-.5.3-.8c-.1-1-.5-2.1-1-3.1zm.8 3.9c-.2.2-.4.4-.6.5-.5.3-1 .6-1.5.8-1.1.4-2.2.7-3.3.9-2.3.4-4.6.6-6.8.4-2.3-.2-4.5-.8-6.6-1.6-.5-.2-1-.5-1.5-.7-.2-.1-.5-.3-.7-.5-.1-.1-.2-.2-.2-.3 0 0 0-.1-.1-.1v-.2c0-.4.1-.8.2-1.1.7-1.5 1.6-2.9 2.8-4 1.5-1.4 3.6-2.2 5.7-2.6 2.1-.4 4.3-.2 6.3.6 1.8.7 3.5 1.8 4.9 3.2.8 1.2 1.5 2.5 1.8 3.9-.1.3-.2.6-.4.8z" fill="#000000" stroke-width="none" opacity="1" stroke="none"></path></g></g></g><g id="svga-group-eyes-right-move" transform="matrix(1,0,0,1,0,0)"><g id="svga-group-eyes-right"><g id="svga-group-eyesback-right"><path id="SvgjsPath17592" d="M119.8 77.2c7.5 0 13.5 5.8 13.5 13s-6 13-13.5 13-13.5-5.8-13.5-13 6-13 13.5-13z" fill="#ffffff" stroke-width="none" opacity="1"></path></g><g id="svga-group-eyesiriswrapper-right" transform="matrix(1,0,0,1,0,0)"><g id="svga-group-eyesiriscontrol-right" transform="matrix(1,0,0,1,0,0)"><g id="svga-group-eyesiris-right"><path id="SvgjsPath17556" d="M119.8 85.3c2.7 0 4.9 2.2 4.9 4.9s-2.2 4.9-4.9 4.9-4.9-2.2-4.9-4.9 2.2-4.9 4.9-4.9z" fill="#02040d" stroke-width="none" opacity="1"></path><path id="SvgjsPath17557" d="M119.8 87.5c1.5 0 2.7 1.2 2.7 2.7s-1.2 2.7-2.7 2.7-2.7-1.2-2.7-2.7 1.2-2.7 2.7-2.7z" fill="#000000" stroke-width="none" opacity="1"></path><path id="SvgjsPath17558" d="M119.2 88.1c-.2-.2-.3-.4-.5-.5s-.4-.3-.7-.3c-.2 0-.5.1-.7.3-.2.2-.3.4-.3.7 0 .2.1.5.3.7.2.2.4.3.5.5s.4.3.7.3c.2 0 .5-.1.7-.3.3-.5.3-1.1 0-1.4zm2.4 4.5c.8 0 .8-1.3 0-1.3s-.8 1.3 0 1.3z" fill="#ffffff" stroke-width="none" opacity="1"></path></g></g></g><g id="svga-group-eyesfront-right"><path id="SvgjsPath17601" d="M119.8 76.7c-7.8 0-14.1 6.1-14.1 13.6s6.3 13.6 14.1 13.6 14.1-6.1 14.1-13.6-6.3-13.6-14.1-13.6zm0 19.4c-5.5 0-11.3-1.9-11.1-3.4 0 0 1.2-5.1 5.9-6.9 4.8-1.8 9.7-.7 12 1.6s4.2 4.8 4 5.6c-.2.8-5.4 3.1-10.8 3.1z" fill="#f3d4cf" stroke-width="none" opacity="1" stroke="none"></path><path id="SvgjsPath17604" d="M134.7 89.1c-1.1 1.2-2.9 2.1-4.6 2-.1-.1-.2-.2-.2-.3-.1-.1-.1-.2-.2-.3.7.1 1.6-.4 2.1-.8.7-.6 1.2-1.2 1.4-2.1 0-.3-.3-.4-.4-.2-.4.6-.9 1.3-1.5 1.7-.5.3-1.4.3-1.9.6v-.1l-.9-1.2c.4-.1.8-.2 1.1-.4.8-.4 1.4-1 1.6-1.8.1-.3-.3-.4-.5-.2-.4.6-.9 1.1-1.6 1.4-.4.2-.9.2-1.3.2-.1-.1-.1-.2-.2-.2l-.3-.3-.4-.3-.9-.8-.8-.5-.4-.2-.4-.2c-.3-.1-.6-.3-.9-.4-1.2-.4-2.5-.6-3.8-.7-2.6 0-5.2.6-7.3 2.2-2 1.6-3.2 3.8-3.6 6.2 0 .1-.1.2-.1.2 0 .3.1.6.3.8.2.2.4.4.7.5.5.3 1 .5 1.5.8 1 .4 2.1.8 3.2 1 2.2.5 4.4.8 6.6.7 1.8-.1 3.6-.4 5.4-1 .3.3.6.7.8 1.1.2.4.2.8.4 1.1.1.2.4.2.5-.1.3-.8-.3-1.8-.9-2.4.1 0 .3-.1.4-.1.4-.2.8-.3 1.2-.5.5.2.9.5 1.3.9.3.4.4.9.8 1.2.1.1.4.1.4-.1.3-.6-.1-1.3-.6-1.8-.4-.3-.8-.6-1.2-.7.4-.2.8-.4 1.2-.7l.3-.3c.1-.1.1-.2.1-.3v-.3c0-.2-.1-.3-.2-.5 1.8.3 4.2-.8 4.5-2.8-.3 0-.5-.2-.7 0zm-4.3 3.7c0 .1 0 .1 0 0-.1.2-.2.2-.3.3-.8.6-1.9 1-2.9 1.4-2.1.7-4.2 1.1-6.4 1.3-2.2.1-4.4-.1-6.5-.4-1.1-.2-2.2-.4-3.2-.8-.5-.2-1-.4-1.5-.7-.2-.1-.5-.3-.7-.5-.2-.2-.3-.4-.3-.7 0-.1 0-.1.1-.2 1-2.1 2.5-4 4.3-5.1.9-.6 2-1 3.1-1.2 1.1-.3 2.2-.4 3.4-.4 1.1 0 2.2.2 3.3.5.3.1.5.2.8.3l.4.1.4.2.8.4.7.5c.5.3.9.7 1.4 1.1l1.2 1.2 1.1 1.4c.2.4.5.8.7 1.1v.2h.1z" fill="#000000" stroke-width="none" opacity="1" stroke="none"></path></g></g></g><g id="svga-group-facehighlight-single"></g><g id="svga-group-eyebrows-left-move" transform="matrix(1,0,0,1,0,0)"><g id="svga-group-eyebrows-left-rotate" transform="matrix(1,1.7453292519943295e-9,-1.7453292519943295e-9,1,1.2995914744351467e-7,-1.3809918186780124e-7)"><g id="svga-group-eyebrows-left"><path id="SvgjsPath19064" d="M63.58 81.61s2.73-6.07 7.31-8.29c5.98-2.9 21.19 2.04 22.07 2.67.87.63.35 3.77-1.13 3.92-1.48.15-8.53-2.96-13.8-4.33-5.27-1.38-9.96 0-14.45 6.03z" fill="#2a232b" stroke-width="none" opacity="1"></path><path id="SvgjsPath19065" d="M63.57 81.64c.12-.13.26-.26.39-.42l.37-.43c.24-.28.49-.55.74-.81.5-.52 1.02-1.03 1.58-1.49 1.09-.93 2.31-1.71 3.61-2.24 1.3-.53 2.7-.8 4.1-.78 1.41.01 2.8.26 4.18.67 2.78.78 5.52 1.77 8.27 2.72 1.38.47 2.75.96 4.22 1.28.19.03.37.07.57.07.2.01.44-.01.64-.1.41-.18.69-.52.88-.87.2-.35.32-.73.4-1.12.08-.39.1-.79.05-1.2-.03-.2-.07-.4-.16-.61-.08-.2-.23-.4-.44-.51-.36-.18-.7-.28-1.05-.41-.7-.23-1.39-.45-2.09-.66a90.5 90.5 0 0 0-4.22-1.12c-2.83-.68-5.67-1.3-8.59-1.47-1.45-.08-2.93-.04-4.37.27-.72.16-1.44.39-2.11.75-.66.35-1.28.77-1.85 1.24-1.14.95-2.13 2.09-2.98 3.3-.43.6-.82 1.25-1.18 1.9-.18.33-.35.66-.52.99-.08.17-.16.34-.24.5l-.11.26-.06.13-.02.06-.01.03-.01.02c-.01.01-.01.04.01.05zm.03-.07c1.45-2.5 3.19-4.99 5.44-6.73.56-.43 1.16-.82 1.78-1.13.61-.32 1.28-.52 1.97-.67 1.37-.27 2.8-.32 4.23-.3 1.43.02 2.86.15 4.29.34 1.43.18 2.85.43 4.27.75 1.42.32 2.81.7 4.2 1.13.69.21 1.39.45 2.06.71.33.13.68.27.98.42.24.13.34.5.36.84.04.7-.13 1.44-.48 2.02-.17.29-.41.53-.67.62-.13.05-.26.06-.42.05-.15-.01-.33-.05-.5-.09-.68-.16-1.37-.39-2.05-.62L87 78.17c-2.74-.99-5.47-2.05-8.3-2.83-1.41-.39-2.9-.66-4.37-.62-1.48.03-2.95.36-4.3.96-1.35.59-2.56 1.49-3.64 2.5-.55.5-1.04 1.05-1.51 1.62-.23.29-.47.57-.69.87-.11.14-.24.3-.31.44-.08.14-.16.31-.28.46z" fill="#1b141c" stroke-width="none" opacity="1"></path></g></g></g><g id="svga-group-eyebrows-right-move" transform="matrix(1,0,0,1,0,0)"><g id="svga-group-eyebrows-right-rotate" transform="matrix(1,1.7453292519943295e-9,-1.7453292519943295e-9,1,1.365545756470965e-7,-2.1299837271726574e-7)"><g id="svga-group-eyebrows-right"><path id="SvgjsPath19066" d="M136.97 82.09s-2.84-5.43-7.28-7.34c-5.81-2.49-20.12 2.3-20.92 2.88s-.19 3.42 1.23 3.52c1.41.1 8-2.86 12.98-4.22 4.95-1.34 9.48-.19 13.99 5.16z" fill="#2a232b" stroke-width="none" opacity="1"></path><path id="SvgjsPath19067" d="m137 82.06-.01-.02-.02-.03-.03-.06-.06-.12-.12-.23c-.08-.15-.16-.31-.25-.45-.18-.3-.35-.59-.54-.88-.37-.59-.77-1.15-1.2-1.69-.86-1.08-1.84-2.09-2.97-2.92-.56-.41-1.17-.78-1.81-1.09-.64-.31-1.34-.49-2.04-.63-1.39-.25-2.8-.25-4.18-.15-2.77.22-5.46.84-8.13 1.51-1.33.35-2.66.7-3.97 1.1-.66.2-1.31.41-1.96.64-.33.12-.64.22-.98.39-.2.1-.33.29-.4.47s-.11.37-.13.56a3.636 3.636 0 0 0 .52 2.1c.2.32.48.61.88.77.19.07.42.1.62.08.19-.01.37-.04.54-.09 1.38-.32 2.67-.79 3.96-1.25 2.58-.92 5.16-1.87 7.78-2.64 1.3-.4 2.61-.65 3.96-.69 1.33-.04 2.68.17 3.93.62 1.26.45 2.45 1.13 3.53 1.95.54.41 1.06.86 1.56 1.32.25.23.49.47.74.71l.36.38c.13.14.27.26.39.37.02.01.03-.02.03-.03zm-.34-.4c-.08-.11-.21-.26-.32-.39-.22-.27-.45-.52-.69-.77-.47-.5-.97-.99-1.51-1.43-1.06-.89-2.25-1.66-3.55-2.18-1.3-.52-2.72-.78-4.13-.78-1.42-.01-2.82.26-4.14.65-2.66.76-5.22 1.78-7.79 2.74l-1.92.71c-.64.23-1.29.45-1.93.62-.16.04-.32.07-.47.09-.15.02-.27.01-.4-.03-.25-.08-.49-.29-.66-.54-.35-.51-.55-1.18-.53-1.82.01-.31.09-.64.31-.76.28-.15.6-.28.92-.41.64-.25 1.28-.48 1.93-.69 1.3-.42 2.63-.8 3.95-1.12 1.34-.32 2.68-.57 4.04-.77 1.36-.2 2.72-.34 4.07-.4s2.72-.05 4.03.18c.66.11 1.3.28 1.9.56.61.27 1.19.6 1.75.98 2.21 1.53 3.97 3.75 5.45 5.97-.13-.15-.22-.3-.31-.41z" fill="#1b141c" stroke-width="none" opacity="1"></path></g></g></g><g id="svga-group-nose-single-move" transform="matrix(1,0,0,1,0,0)"><g id="svga-group-nose-single"><path id="SvgjsPath18041" d="M92.19 104.66c-.45 1.23-.86 2.48-1.01 3.75-.07.63-.1 1.29.11 1.82l.08.19.12.18c.04.06.08.12.13.16.05.05.09.11.15.15.2.18.47.29.74.35.56.12 1.18.02 1.8-.11l.47-.11.25-.06.13-.03.16-.02c.44-.03.81.12 1.13.27.65.32 1.16.76 1.67 1.14l.19.14c.06.04.11.07.17.1.12.06.24.12.38.15.27.08.56.11.84.11.57-.01 1.14-.19 1.58-.54l.16-.14.19-.17a5.859 5.859 0 0 1 1.29-.91c.32-.16.67-.28 1.04-.33.19-.02.38-.03.59 0 .1.01.2.04.3.06l.26.1c.23.09.54.13.84.15.3.02.62.01.92-.03.6-.07 1.24-.24 1.6-.62.17-.17.24-.46.28-.76.03-.3.03-.62-.01-.93-.12-1.27-.55-2.52-1.1-3.71.71 1.1 1.23 2.34 1.5 3.65.06.33.09.67.08 1.02-.02.34-.07.73-.33 1.07-.25.32-.59.5-.91.63-.33.14-.67.21-1.01.27-.34.06-.69.08-1.03.08-.35-.01-.7-.03-1.08-.17l-.2-.07c-.06-.01-.12-.03-.18-.03-.12-.02-.26 0-.39.02-.27.05-.55.15-.81.29-.26.14-.52.3-.75.49-.12.09-.23.2-.35.3l-.17.16-.21.19c-.59.48-1.33.72-2.06.73-.37.01-.73-.04-1.09-.15a2.7 2.7 0 0 1-.53-.22c-.08-.05-.17-.11-.25-.16l-.2-.15c-.52-.4-1.02-.81-1.54-1.09-.26-.13-.52-.23-.74-.22h-.08l-.11.02-.23.05-.49.1c-.66.12-1.37.22-2.09.03-.35-.1-.71-.26-.99-.53-.26-.27-.48-.57-.59-.94-.22-.71-.12-1.41 0-2.06.14-.66.35-1.28.58-1.9.22-.58.49-1.18.8-1.76z" fill="#c5796d" stroke-width="none" opacity="1" stroke="none"></path><path id="SvgjsPath18042" d="M101.48 107.53c-.46-.46-1.1-.54-1.72-.41-.08.02-.15.03-.22.05-.26-.17-.52-.28-.87-.28-.39 0-.85.17-1.11.46-.59.64-.6 1.58 0 2.22 1.02 1.09 3.28 1.39 4.14-.07.35-.61.28-1.47-.22-1.97z" fill="#fbe5e2" stroke-width="none" opacity="1" stroke="none"></path></g></g><g id="svga-group-hair-front"><path id="SvgjsPath18376" d="M145.4 55c-.9-2.7-3.2-10-3.6-10.7-.4-.7-5.2-4.1-8.2-5 0 0 .7-4.5-4.3-7.7 0 0-3.9-5.5-9.8-5.9 0 0-11.3-7.7-19.1-6.4 0 0-23.1-5.7-42.7 9.5s-18 37.7-17.8 43c.2 5.2 2.7 15.4 10.7 28.8 7.9 13.4 3.6 26.6-1.8 36.1-5.5 9.5-16.6 25.2-13.4 37.7 3.2 12.5 5.7 12.2 15.2 20.4s9.5 15.4 8.2 19.3c0 0 5-3.9 1.6-16.1 0 0 3.2 2.5 4.1 7.9 0 0 1.6-5.9-.7-13.4s-.7-12.4 2.1-16.7c.3-.4.6-1.1 1-1.9 1.1-1.4 4.7-6.7 6-8.8 6.2-9.6 5.7-17.7-.1-29.2l-.3-.3c.7-7.2 1.2-17-.3-24.2-2.7-12.7-6.8-21.8-7-27.4-.2-5.7-2.5-15.9 5-25.6s14-12.4 19.5-13.2c7.3-1 20.1-1.9 25.2-.8 5.1 1.1 8.4 2.8 8.4 2.8s5.2 6.1 8.4 11.3c3.2 5.2 5.4 12.7 6.4 16.8.9 4.1 5.4 16.8 5.4 16.8s2.9-10.4 3.4-15.4c.4-5.2-.5-19-1.5-21.7z" fill="#2a232b" stroke-width="none" opacity="1" stroke="none"></path><path id="SvgjsPath18377" d="M70.9 33.9C58.8 39.1 52.6 53.4 54.3 66c1.3 9.1 5.9 17 10 25 .6 1.4 1.3 2.7 2 4 2.8 6 4.9 12.2 4.8 19.1-.2 10.2-4.2 19.9-9.6 28.4-4.8 7.5-11.2 13.8-15.8 21.4-4 6.6-5.9 14.7-2 21.8 5.1 9.2 17.4 15.5 14.8 27.6-.1.3.4.4.5.1 1.9-5.8-.8-11.2-4.4-15.8-5.5-6.9-12.9-12.2-11.9-22 1-9.4 7.8-16.3 13.4-23.4 4.6-5.8 8.8-12.1 11.9-18.9 2.6-5.9 4-11.8 4.2-17.6 1.5 16.6-1.2 32.6-10.2 47.4-3.9 6.4-8.5 12.8-7.3 20.7 1.6 10.1 10.4 18.6 5.2 29.1-.2.4.4.8.7.4 4.7-6.8.8-15-2-21.6-2.8-6.7-3.8-12.6-.6-19.4 2.1-4.5 5.2-8.4 7.5-12.8 8-15.1 11-34.4 6.3-51-.1-.7-.2-1.3-.3-2 .1 0 .1-.1.1-.2-.1-.4-.2-.7-.3-1.1-.6-2.7-1.4-5.3-2.4-8-2.1-7-3.9-13.9-3.5-21.4.5-9.8 4.5-18 11.8-24.4.2-.2-.1-.6-.3-.4-13.3 8.2-14.4 24.8-11.1 39.4-.7-1.4-1.4-2.7-2.1-4.1-2.9-7.9-4.6-16.2-2.6-24.8 3-12.7 15.6-23.8 28.9-17.3.3.2.6-.3.3-.5-11.1-7.2-24 1.5-28.6 12.1-3.3 7.5-3.3 15.6-1.5 23.3-4.3-9.6-7-19.3-2.3-30.1 7.4-17.1 31-22 42.5-5.9.3.4 1 0 .7-.4-6-10-19.6-13.2-30.2-8.8zm33.2-13.6c4.4.6 8.7 1.6 12.8 4.1 6.9 4.2 10.7 11.4 9.9 19.3 0 .4.6.5.7.1 1.6-7.6-1.4-13.5-6.5-17.6 6.3 1.9 9.4 7.1 9.8 13.8 0 .2.3.3.4 0 .5-2.7.1-5.3-1.1-7.6.7.6 1.4 1.2 1.9 2.1.8 1.4 1.1 2.8 1.4 4.4.1.3.5.2.5-.1.3-2.9-1.9-7.3-4.7-8.2h-.1c-2.2-3.1-5.8-5.4-9.7-6h-.2c-5.9-4-13.8-6.1-20.6-6.2-.7-.1-1.4-.3-2.1-.4-14.2-2.4-29 2.1-40 11.3C44.7 39.4 38.4 54.6 39.1 70c.4 7.6 2.6 14.8 6.1 21.6 4.4 8.6 10.2 16.8 9.3 26.9-1.7 20.4-24.5 35.5-19.5 57 0 .2.1.2.3.2v.7c.9 7.8 7.8 13.7 14 17.6.2.1.3-.1.2-.2-6.1-5.4-13.6-10.6-13.3-19.8.3-10.2 9.4-17.2 15.2-24.6 8.2-10.4 11.9-24 10.2-37.1-2.1-16.1-13.9-29-15.4-45.2-1.2-14.9 7.5-30.2 20.9-36.7 16.7-8.1 36.1-1.1 46.8 13.1.2.3.7 0 .5-.3C107.2 31 92 24.5 78.1 26c-13.7 1.5-25.2 11.2-30.3 23.9-6.6 16.4 1 30.6 7.6 45.6 9 20.4 6.4 40.9-8.5 57.7-4.8 5.5-10.5 11.7-11.5 19.1-.6-16.4 12.1-28.8 17.7-43.5 2.4-6.2 3.4-12.8 1.7-19.4-1.7-6.6-5.5-12.3-8.6-18.3C31.1 62 47.7 25.4 80.6 19.6c18.3-3.2 40.5 5.2 42.3 26.1 0 .3.5.3.5 0-.2-12.2-8.7-21.2-19.3-25.4zm39 25.7c.2-.2.2-.4-.1-.6h-.1v-.1c-1.2-3.1-6.2-6.3-9.5-5.9-.2 0-.3.3-.1.4 1.6.8 3.3 1.1 4.8 2 1.3.8 2.2 1.8 3.1 2.8-3-1.4-6.4-2.3-9.6-2.4-.4 0-.4.6-.1.6 3.9.8 7.3 1.8 11 3.4.4 1.5.7 3 1.1 4.6-5.2-.4-9.9-2-14.7-4.2-.3-.1-.5.2-.3.4 4.5 3 9.8 4.4 15.1 4.8.7 3.2 1.4 6.5 1.8 9.8-3.4-1.7-6.9-3-10.2-5-3.4-2.1-6.3-4.7-9.4-7-.3-.2-.5.2-.3.4 4.6 5.6 13 10.7 20 12.4.2 1.5.3 3 .4 4.5 0 1.1.1 2.2 0 3.3-5.2-2.6-9.1-5.9-12.9-10.3-.2-.2-.6.1-.4.3 2.8 5 8 9 13.3 11-.1 2.5-.3 5.1-.6 7.6-2.9-1.6-5.2-3.7-7.4-6.1-.2-.2-.6.1-.5.4 1.7 3 4.6 5.2 7.6 6.6h.1c-.2 1.6-.5 3.2-.8 4.8-1.8-.8-3.1-2-4-3.8-.1-.3-.6-.1-.5.2.6 2 2.3 3.8 4.4 4.5-.2.9-.4 1.7-.5 2.6-.3-.2-.6-.4-.9-.7l-1.2-1.2c-.2-.2-.6.1-.4.3.6 1.1 1.5 2.2 2.7 2.7.3.1.4-.1.5-.3.2-.1.3-.2.4-.4 3.6-13.4 3.5-29.4-1.8-42.4zM64.4 205.8c.7-3.1.5-6.3-.2-9.3-.3-1.5-.7-3-1.2-4.5-.5-1.4-1-3-1.3-4.6-.3-1.6-.3-3.3-.1-4.9.2-1.6.8-3.2 1.4-4.7 1.4-3 3.3-5.5 5.2-8 1.9-2.5 3.9-4.9 5.3-7.6.8-1.3 1.3-2.8 1.8-4.2.2-.7.4-1.5.5-2.2l.2-1.1.1-1.1c.3-3.1-.1-6.2-.9-9.2-.7-3-1.8-6-2.9-8.9 1.4 2.8 2.7 5.7 3.6 8.8.9 3 1.4 6.2 1.3 9.4-.1 3.2-1 6.4-2.5 9.3-1.5 2.9-3.5 5.4-5.4 7.9-1.9 2.5-3.8 5-5.1 7.7-.7 1.4-1.2 2.8-1.4 4.3-.2 1.5-.3 3-.1 4.5.2 1.5.6 2.9 1.1 4.5.5 1.5.8 3.1 1 4.7.2 1.6.3 3.2.2 4.8.2 1.4 0 2.9-.6 4.4z" fill="#0c080c" stroke-width="none" opacity="1" stroke="none"></path></g><g id="svga-group-glasses-single-move" transform="matrix(1,0,0,1,0,0)"><g id="svga-group-glasses-single"><path id="SvgjsPath19287" d="M64.78 85.78c-1.72 3.19-1.42 9.88 2.25 15.68 3.63 5.74 13.49 6.1 19.37 3.29 5.91-2.83 8.24-8.53 8.5-12.8.27-4.3-3.37-6.74-5.39-7.49-2.02-.75-13.34-2.27-18.5-1.51-5.14.76-6.23 2.83-6.23 2.83z" fill="url(#SvgjsLinearGradient19288)" opacity="1"></path><path id="SvgjsPath19291" d="M134.57 85.78c1.72 3.19 1.42 9.88-2.25 15.68-3.63 5.74-13.49 6.1-19.37 3.29-5.91-2.83-8.24-8.53-8.5-12.8-.27-4.3 3.37-6.74 5.39-7.49 2.02-.75 13.34-2.27 18.5-1.51 5.14.76 6.23 2.83 6.23 2.83z" fill="url(#SvgjsLinearGradient19292)" opacity="1"></path><path id="SvgjsPath19295" d="M120.87 107.57c-4.75 0-9.21-1.48-12.24-4.08-4.71-4.03-5.59-8.96-6.02-11.34-.1-.56-.18-1.01-.28-1.28-.56-1.54-1.23-2.33-1.99-2.33h-1.32c-.76 0-1.43.78-1.99 2.33-.1.27-.18.72-.28 1.28-.43 2.38-1.31 7.3-6.02 11.34-3.03 2.6-7.49 4.08-12.24 4.08-3.09 0-6.07-.66-8.18-1.81-5.62-3.07-7.26-9.7-7.7-12.43-.56-3.47-1.99-4.13-2.42-4.25l-.2-6.01c.39-.01 1.56-.05 2.6-.31.06-.02 6.5-1.57 12.79-1.57 1.04 0 2.02.04 2.91.13 5.93.57 10.7 1.69 14.18 2.5l.77.18c2.42.56 4.12.64 4.92.64.43 0 .66-.02.66-.02h1.73s.22.02.65.02c.8 0 2.5-.08 4.92-.64l.77-.18c3.48-.81 8.25-1.92 14.19-2.5.89-.09 1.87-.13 2.91-.13 6.29 0 12.73 1.56 12.79 1.57 1.04.26 2.21.3 2.6.31l-.2 6.01c-.43.12-1.85.78-2.42 4.25-.44 2.73-2.07 9.36-7.7 12.43-2.12 1.15-5.1 1.81-8.19 1.81zm2.97-24.02c-.84 0-1.67.02-2.46.06-1.46.06-7.54.5-10.66 1.54-3.12 1.05-5.2 3.1-5.45 5.34-.29 2.58.56 5.81 2.25 8.64 1.8 3 4.16 4.88 7.24 5.77 1.89.55 3.68.8 5.63.8 1.61 0 3.33-.18 5.24-.54 3.4-.65 5.96-3.07 7.63-7.21 1.47-3.67 1.87-9.23-.09-11.79-1.34-1.75-4.4-2.61-9.33-2.61zm-48.33 0c-4.93 0-7.99.86-9.33 2.61-1.96 2.56-1.57 8.12-.09 11.79 1.67 4.14 4.23 6.56 7.63 7.21 1.91.36 3.62.54 5.24.54 1.95 0 3.73-.26 5.63-.8 3.08-.89 5.45-2.77 7.24-5.77 1.69-2.83 2.54-6.06 2.26-8.64-.25-2.24-2.34-4.29-5.45-5.34-3.11-1.05-9.2-1.48-10.65-1.54-.81-.03-1.64-.06-2.48-.06z" fill="#26120b" stroke-width="none" opacity="1"></path><path id="SvgjsPath19296" d="M123.97 81.32c6.27 0 12.69 1.55 12.76 1.57.95.24 2.01.3 2.5.31l-.19 5.79c-.55.2-1.88 1.03-2.42 4.33-.44 2.71-2.06 9.29-7.63 12.33-2.09 1.14-5.05 1.79-8.12 1.79-4.72 0-9.14-1.47-12.15-4.05-4.68-4-5.55-8.9-5.97-11.26-.11-.59-.18-1.02-.29-1.3-.59-1.63-1.28-2.42-2.12-2.42h-1.32c-.84 0-1.53.79-2.12 2.42-.1.29-.18.71-.29 1.3-.42 2.37-1.3 7.26-5.97 11.26-3.01 2.58-7.43 4.05-12.15 4.05-3.07 0-6.03-.65-8.12-1.79-5.57-3.04-7.19-9.62-7.63-12.33-.54-3.3-1.87-4.13-2.42-4.33l-.19-5.79c.49-.02 1.55-.08 2.5-.31.06-.02 6.48-1.57 12.76-1.57 1.03 0 2.01.04 2.9.13 5.92.57 10.69 1.68 14.16 2.49l.77.18c2.43.56 4.14.65 4.95.65.42 0 .65-.02.65-.02h1.71s.23.02.67.02c.81 0 2.52-.08 4.95-.65l.77-.18c3.48-.81 8.24-1.92 14.16-2.49.88-.09 1.86-.13 2.89-.13m-3.57 24.52c1.62 0 3.34-.18 5.26-.54 3.45-.66 6.05-3.1 7.73-7.29 1.49-3.7 1.88-9.32-.11-11.92-1.37-1.79-4.46-2.67-9.44-2.67-.75 0-1.55.02-2.47.06-1.46.06-7.57.5-10.69 1.55-3.17 1.07-5.29 3.16-5.54 5.45-.29 2.61.57 5.87 2.27 8.72 1.81 3.03 4.21 4.93 7.32 5.83 1.91.55 3.71.81 5.67.81m-41.44 0c1.96 0 3.76-.26 5.67-.81 3.11-.9 5.5-2.8 7.32-5.83 1.71-2.85 2.56-6.11 2.27-8.72-.25-2.3-2.38-4.39-5.54-5.45-3.13-1.05-9.23-1.49-10.69-1.55-.92-.04-1.72-.06-2.47-.06-4.98 0-8.07.87-9.44 2.67-1.99 2.6-1.6 8.22-.11 11.92 1.68 4.19 4.28 6.64 7.73 7.29 1.91.36 3.63.54 5.26.54m45.02-24.79c-.99 0-1.98.04-2.93.13-6.39.62-11.42 1.86-14.97 2.68-2.37.55-4.04.64-4.89.64-.43 0-.65-.02-.65-.02H98.8s-.22.02-.65.02c-.85 0-2.52-.09-4.89-.64-3.56-.82-8.58-2.06-14.97-2.68-.95-.09-1.93-.13-2.93-.13-5.72 0-11.76 1.31-12.82 1.58-1.24.31-2.71.31-2.71.31l.21 6.25s1.77.2 2.42 4.17c.64 3.94 2.67 9.74 7.77 12.52 2.14 1.17 5.11 1.83 8.25 1.83 4.31 0 8.97-1.24 12.33-4.11 5.84-5 5.82-11.25 6.34-12.67.52-1.42 1.14-2.24 1.87-2.24h1.32c.73 0 1.35.82 1.87 2.24.52 1.42.5 7.68 6.34 12.67 3.35 2.87 8.01 4.11 12.33 4.11 3.14 0 6.1-.66 8.25-1.83 5.1-2.78 7.13-8.59 7.77-12.52.64-3.96 2.42-4.17 2.42-4.17l.21-6.25s-1.46 0-2.71-.31c-1.08-.27-7.12-1.58-12.84-1.58zm-3.58 24.53c-2.09 0-3.88-.3-5.59-.8-2.98-.86-5.33-2.64-7.17-5.71-1.85-3.09-2.49-6.24-2.24-8.56.26-2.33 2.48-4.26 5.36-5.23 2.88-.97 8.64-1.46 10.62-1.54.79-.03 1.62-.06 2.46-.06 3.71 0 7.61.45 9.23 2.56 1.97 2.58 1.48 8.17.08 11.66-1.39 3.47-3.65 6.39-7.53 7.13-1.97.39-3.67.55-5.22.55zm-41.45 0c-1.54 0-3.25-.16-5.21-.54-3.88-.74-6.14-3.66-7.53-7.13-1.4-3.49-1.9-9.09.08-11.66 1.62-2.11 5.52-2.56 9.23-2.56.84 0 1.67.02 2.46.06 1.97.08 7.73.57 10.62 1.54 2.88.97 5.1 2.9 5.36 5.23.26 2.32-.39 5.47-2.24 8.56-1.84 3.07-4.19 4.85-7.17 5.71-1.72.49-3.51.79-5.6.79z" fill="#070201" stroke-width="none" opacity="1"></path></g></g></g></g></g><rect id="svga-credit-rect" width="200" height="15" x="0" y="185" fill="#ecf0f1" opacity="0.5" style="display: none;"></rect><text id="svga-credit-text" font-family="Avenir Next, Roboto, Helvetica, Arial, sans-serif" font-size="10px" text-anchor="start" font-weight="400" size="10px" anchor="start" weight="400" fill="#333333" x="33.40447998046875" y="182.60824704170227" style="display: none;"><tspan id="SvgjsTspan17462" dy="13" x="33.40447998046875">Created on AvatarMaker.com</tspan></text></g><defs id="SvgjsDefs17414"><linearGradient id="SvgjsLinearGradient17684" x1="79.3484" y1="82.7453" x2="79.3484" y2="106.4625" gradientUnits="userSpaceOnUse" class="svga-on-canvas-glasses-gradient-single-0-null"><stop id="SvgjsStop17685" stop-opacity="1" stop-color="#9bc2cf" offset="0" ></stop><stop id="SvgjsStop17686" stop-opacity="0" stop-color="#6086c4" offset="1" ></stop></linearGradient><linearGradient id="SvgjsLinearGradient17688" x1="-20.0053" y1="82.7453" x2="-20.0053" y2="106.4625" gradientTransform="matrix(-1 0 0 1 100 0)" gradientUnits="userSpaceOnUse" class="svga-on-canvas-glasses-gradient-single-1-null"><stop id="SvgjsStop17689" stop-opacity="1" stop-color="#9bc2cf" offset="0" ></stop><stop id="SvgjsStop17690" stop-opacity="0" stop-color="#6086c4" offset="1" ></stop></linearGradient><linearGradient id="SvgjsLinearGradient19087" x1="79.8826" y1="80.3169" x2="79.8826" y2="107.6923" gradientUnits="userSpaceOnUse" class="svga-on-canvas-glasses-gradient-single-0-null"><stop id="SvgjsStop19088" stop-opacity="1" stop-color="#9ab4d3" offset="0" ></stop><stop id="SvgjsStop19089" stop-opacity="0.7593" stop-color="#93aed1" offset="0.2407" ></stop><stop id="SvgjsStop19090" stop-opacity="0.4009" stop-color="#7e9ecc" offset="0.5991" ></stop><stop id="SvgjsStop19091" stop-opacity="0" stop-color="#6086c4" offset="1" ></stop></linearGradient><linearGradient id="SvgjsLinearGradient19093" x1="-20.852" y1="80.3169" x2="-20.852" y2="107.6923" gradientTransform="matrix(-1 0 0 1 100 0)" gradientUnits="userSpaceOnUse" class="svga-on-canvas-glasses-gradient-single-1-null"><stop id="SvgjsStop19094" stop-opacity="1" stop-color="#9ab4d3" offset="0" ></stop><stop id="SvgjsStop19095" stop-opacity="0.7593" stop-color="#93aed1" offset="0.2407" ></stop><stop id="SvgjsStop19096" stop-opacity="0.4009" stop-color="#7e9ecc" offset="0.5991" ></stop><stop id="SvgjsStop19097" stop-opacity="0" stop-color="#6086c4" offset="1" ></stop></linearGradient><linearGradient id="SvgjsLinearGradient19151" x1="79.157" y1="118.6424" x2="79.157" y2="100.1003" gradientTransform="matrix(1 0 0 -1 0 202)" gradientUnits="userSpaceOnUse" class="svga-on-canvas-glasses-gradient-single-0-null"><stop id="SvgjsStop19152" stop-opacity="1" stop-color="#bfeaf2" offset="0" ></stop><stop id="SvgjsStop19153" stop-opacity="0.649" stop-color="#a1cae3" offset="0.351" ></stop><stop id="SvgjsStop19154" stop-opacity="0" stop-color="#6086c4" offset="1" ></stop></linearGradient><linearGradient id="SvgjsLinearGradient19156" x1="-1736.868" y1="118.4745" x2="-1736.868" y2="100.2229" gradientTransform="matrix(-1 0 0 -1 -1618 202)" gradientUnits="userSpaceOnUse" class="svga-on-canvas-glasses-gradient-single-1-null"><stop id="SvgjsStop19157" stop-opacity="1" stop-color="#bfeaf2" offset="0" ></stop><stop id="SvgjsStop19158" stop-opacity="0.649" stop-color="#a1cae3" offset="0.351" ></stop><stop id="SvgjsStop19159" stop-opacity="0" stop-color="#6086c4" offset="1" ></stop></linearGradient><linearGradient id="SvgjsLinearGradient19208" x1="79.1" y1="75.8" x2="79.1" y2="108.66" gradientUnits="userSpaceOnUse" class="svga-on-canvas-glasses-gradient-single-0-null"><stop id="SvgjsStop19209" stop-opacity="1" stop-color="#b4c0cf" offset="0" ></stop><stop id="SvgjsStop19210" stop-opacity="0.9374" stop-color="#abbace" offset="0.0626" ></stop><stop id="SvgjsStop19211" stop-opacity="0.679" stop-color="#8aa3ca" offset="0.321" ></stop><stop id="SvgjsStop19212" stop-opacity="0.4305" stop-color="#7393c6" offset="0.5695" ></stop><stop id="SvgjsStop19213" stop-opacity="0.1987" stop-color="#6589c5" offset="0.8013" ></stop><stop id="SvgjsStop19214" stop-opacity="0" stop-color="#6086c4" offset="1" ></stop></linearGradient><linearGradient id="SvgjsLinearGradient19216" x1="121.5" y1="75.8" x2="121.5" y2="108.66" gradientUnits="userSpaceOnUse" class="svga-on-canvas-glasses-gradient-single-1-null"><stop id="SvgjsStop19217" stop-opacity="1" stop-color="#b4c0cf" offset="0" ></stop><stop id="SvgjsStop19218" stop-opacity="0.9374" stop-color="#abbace" offset="0.0626" ></stop><stop id="SvgjsStop19219" stop-opacity="0.679" stop-color="#8aa3ca" offset="0.321" ></stop><stop id="SvgjsStop19220" stop-opacity="0.4305" stop-color="#7393c6" offset="0.5695" ></stop><stop id="SvgjsStop19221" stop-opacity="0.1987" stop-color="#6589c5" offset="0.8013" ></stop><stop id="SvgjsStop19222" stop-opacity="0" stop-color="#6086c4" offset="1" ></stop></linearGradient><linearGradient id="SvgjsLinearGradient19288" x1="79.3484" y1="82.7453" x2="79.3484" y2="106.4625" gradientUnits="userSpaceOnUse" class="svga-on-canvas-glasses-gradient-single-0-null"><stop id="SvgjsStop19289" stop-opacity="1" stop-color="#9bc2cf" offset="0" ></stop><stop id="SvgjsStop19290" stop-opacity="0" stop-color="#6086c4" offset="1" ></stop></linearGradient><linearGradient id="SvgjsLinearGradient19292" x1="-20.0053" y1="82.7453" x2="-20.0053" y2="106.4625" gradientTransform="matrix(-1 0 0 1 100 0)" gradientUnits="userSpaceOnUse" class="svga-on-canvas-glasses-gradient-single-1-null"><stop id="SvgjsStop19293" stop-opacity="1" stop-color="#9bc2cf" offset="0" ></stop><stop id="SvgjsStop19294" stop-opacity="0" stop-color="#6086c4" offset="1" ></stop></linearGradient></defs></svg>